<?xml version="1.0" encoding="utf-8"?><!-- Uploaded to: SVG Repo, www.svgrepo.com, Generator: SVG Repo Mixer Tools -->
<svg fill="#000000" width="800px" height="800px" viewBox="0 0 24 24" id="satellite-dish" data-name="Flat Color" xmlns="http://www.w3.org/2000/svg" class="icon flat-color"><path id="secondary" d="M20.5,4A1.5,1.5,0,0,1,19,5.5h-.08L16,8.39a1,1,0,0,1-1.42,0,1,1,0,0,1,0-1.42l2.9-2.89s0,0,0-.08a1.5,1.5,0,0,1,3,0ZM16.93,20.64l-2.42-6.22a1,1,0,0,0-.7-.61,6.33,6.33,0,0,1-3-1.66,5.66,5.66,0,0,1-.57-.69,1,1,0,0,0-.94-.4,1,1,0,0,0-.8.63l-3.47,9A1,1,0,0,0,6,22H16a1,1,0,0,0,.93-1.36Z" style="fill: rgb(44, 169, 188);"></path><path id="primary" d="M21,13a2,2,0,0,1-.83,1.48A8.32,8.32,0,0,1,8.55,2.84,2,2,0,0,1,10,2a2,2,0,0,1,1.62.59l8.75,8.75A2,2,0,0,1,21,13Zm-3,7H4a1,1,0,0,0,0,2H18a1,1,0,0,0,0-2Z" style="fill: rgb(0, 0, 0);"></path></svg>